<svg width="64" height="64" viewBox="0 0 64 64" fill="none" xmlns="http://www.w3.org/2000/svg">
  <!-- Background circle -->
  <circle cx="32" cy="32" r="30" fill="#1C67D8"/>
  
  <!-- Graduation Cap (Birrete) -->
  <g transform="translate(16, 12)">
    <!-- Cap top (mortarboard) -->
    <polygon points="16,4 0,12 16,20 32,12" fill="#FFFFFF"/>
    <!-- Cap bottom/band -->
    <path d="M6,12 L6,18 C6,22 10,26 16,26 C22,26 26,22 26,18 L26,12" fill="#FFFFFF"/>
    <!-- Tassel -->
    <line x1="26" y1="12" x2="30" y2="24" stroke="#FF8F43" stroke-width="2"/>
    <circle cx="30" cy="26" r="3" fill="#FF8F43"/>
    <!-- Button on top -->
    <circle cx="16" cy="12" r="3" fill="#86FEF5"/>
  </g>
  
  <!-- Stylized "A" from Addi logo below cap -->
  <g transform="translate(18, 38)">
    <path d="M14,2C6.3,2 0,8.3 0,15.8V28C0,29.6 1.4,31 3,31C4.6,31 6,29.6 6,28V23H22V28C22,29.6 23.4,31 25,31C26.6,31 28,29.6 28,28V15.8C28,8.3 21.7,2 14,2ZM6,18V15.8C6,12.6 8.8,10 14,10C19.2,10 22,12.6 22,15.8V18H6Z" fill="#FFFFFF" transform="scale(0.9)"/>
  </g>
</svg>